<?xml version="1.0" encoding="utf-8"?>
<!-- Generator: Adobe Illustrator 19.0.0, SVG Export Plug-In . SVG Version: 6.00 Build 0)  -->
<svg version="1.1" id="Layer_1"
	xmlns="http://www.w3.org/2000/svg"
	xmlns:xlink="http://www.w3.org/1999/xlink" x="0px" y="0px" viewBox="131 -131 512 512" style="enable-background:new 131 -131 512 512;" xml:space="preserve">
	<g id="XMLID_1_" fill="black">
		<polygon id="XMLID_3_" points="371.2,83.1 283.7,176.2 362.8,132.4 403.8,176.2 491.3,83.1 413.1,126.9 	"/>
		<path id="XMLID_6_" d="M387-131c-141.5,0-256,114.5-256,256s114.5,256,256,256s256-114.5,256-256S528.5-131,387-131z M387.9,273.9
		c-15.8,0-31.7-1.9-45.6-6.5l-54.9,29.8v-56.8c-36.3-27-59.6-68.9-59.6-116.4c0-81.9,71.7-148.9,160.1-148.9s160.1,67,160.1,149
		C548,206.9,476.4,273.9,387.9,273.9z"/>
	</g>
</svg>
